<svg viewBox="0 0 800 1600" xmlns="http://www.w3.org/2000/svg" width="800" height="1600">
  <!-- Background -->
  <rect width="800" height="1600" fill="#f8fafc"/>
  
  <!-- Title -->
  <text x="20" y="30" font-family="Arial, sans-serif" font-size="18" font-weight="bold" fill="#1e293b">Complete Implementation Concepts</text>
  
  <!-- Concept 1: Enhanced Spacing Implementation -->
  <g transform="translate(20, 60)">
    <text x="0" y="15" font-family="Arial, sans-serif" font-size="14" font-weight="bold" fill="#15803d">Concept 1: Enhanced Spacing & Visual Hierarchy</text>
    <rect x="0" y="25" width="720" height="300" rx="8" fill="white" stroke="#e2e8f0" stroke-width="1"/>
    
    <!-- Header -->
    <text x="20" y="50" font-family="Arial, sans-serif" font-size="16" font-weight="bold" fill="#374151">Key Bindings</text>
    
    <!-- Enhanced filter section with proper spacing -->
    <rect x="20" y="65" width="680" height="50" rx="8" fill="#fafafa" stroke="#f1f5f9" stroke-width="1"/>
    <text x="35" y="85" font-family="Arial, sans-serif" font-size="12" fill="#000000">Group:</text>
    
    <!-- Larger dropdown -->
    <rect x="85" y="75" width="150" height="30" rx="6" fill="#f5f5f5" stroke="#d1d5db" stroke-width="1"/>
    <text x="95" y="93" font-family="Arial, sans-serif" font-size="11" fill="#000000">Wounds (4 shortcuts)</text>
    <polygon points="225,87 230,92 220,92" fill="#6b7280"/>
    
    <!-- Larger icon buttons with proper spacing -->
    <rect x="250" y="80" width="24" height="20" rx="4" fill="white" stroke="#d1d5db" stroke-width="1"/>
    <path d="M259 87L265 87M262 84L262 90" stroke="#6b7280" stroke-width="1.2"/>
    
    <!-- Toggle with label -->
    <text x="285" y="93" font-family="Arial, sans-serif" font-size="11" fill="#6b7280">Show inactive</text>
    <rect x="365" y="85" width="32" height="12" rx="6" fill="#e5e7eb"/>
    <circle cx="373" cy="91" r="4" fill="white"/>
    
    <!-- Settings icon -->
    <rect x="415" y="80" width="24" height="20" rx="4" fill="white" stroke="#d1d5db" stroke-width="1"/>
    <g transform="translate(423, 86)">
      <circle cx="4" cy="4" r="2.5" fill="none" stroke="#6b7280" stroke-width="1"/>
      <path d="M4 1L4 2M4 6L4 7M6.5 2.5L6 3M2 5L1.5 5.5M6.5 5.5L6 5M2 3L1.5 2.5" stroke="#6b7280" stroke-width="1"/>
    </g>
    
    <!-- Subtle divider -->
    <line x1="35" y1="125" x2="685" y2="125" stroke="#f1f5f9" stroke-width="2"/>
    
    <!-- Right-aligned New Binding button with better positioning -->
    <rect x="580" y="135" width="120" height="32" rx="6" fill="#374151"/>
    <text x="620" y="153" font-family="Arial, sans-serif" font-size="11" fill="white">+ New Binding</text>
    
    <!-- Enhanced key binding rows with better spacing -->
    <rect x="20" y="180" width="680" height="50" rx="6" fill="white" stroke="#e5e7eb" stroke-width="1"/>
    
    <!-- Status indicator -->
    <rect x="25" y="185" width="3" height="40" rx="1.5" fill="#10b981"/>
    
    <!-- Larger keyboard key -->
    <rect x="40" y="190" width="70" height="22" rx="3" fill="#ffffff" stroke="#d1d5db" stroke-width="1"/>
    <rect x="40" y="192" width="70" height="18" rx="3" fill="#f9fafb" stroke="#e5e7eb" stroke-width="1"/>
    <text x="65" y="203" font-family="Arial, sans-serif" font-size="9" fill="#374151">Ctrl+Shift+W</text>
    
    <!-- Better content layout -->
    <text x="125" y="200" font-family="Arial, sans-serif" font-size="12" font-weight="600" fill="#000000">Assessment</text>
    <rect x="195" y="195" width="50" height="16" rx="8" fill="#f3f4f6" stroke="#e5e7eb" stroke-width="1"/>
    <text x="210" y="204" font-family="Arial, sans-serif" font-size="8" fill="#6b7280">Wounds</text>
    <rect x="255" y="195" width="35" height="16" rx="8" fill="#dcfce7" stroke="#bbf7d0" stroke-width="1"/>
    <text x="265" y="204" font-family="Arial, sans-serif" font-size="8" fill="#166534">Active</text>
    
    <text x="125" y="215" font-family="Arial, sans-serif" font-size="10" fill="#6b7280">Wound assessment: {location} - {description}. Size: {size}...</text>
    
    <!-- Larger action buttons -->
    <rect x="620" y="190" width="28" height="22" rx="4" fill="white" stroke="#e5e7eb" stroke-width="1"/>
    <path d="M630 198L634 194L636 196L632 200L630 200Z M634 192L636 190L638 192L636 194Z" stroke="#6b7280" stroke-width="1" fill="none"/>
    
    <rect x="655" y="190" width="28" height="22" rx="4" fill="white" stroke="#e5e7eb" stroke-width="1"/>
    <path d="M662 197L664 197M664 197L664 199M664 197L666 197M666 197L666 199M664 199L666 199M663 195L667 195M665 195L665 194" stroke="#6b7280" stroke-width="1" fill="none"/>
    
    <!-- Second binding -->
    <rect x="20" y="240" width="680" height="50" rx="6" fill="white" stroke="#e5e7eb" stroke-width="1"/>
    <rect x="25" y="245" width="3" height="40" rx="1.5" fill="#e5e7eb"/>
    
    <rect x="40" y="250" width="60" height="22" rx="3" fill="#ffffff" stroke="#d1d5db" stroke-width="1"/>
    <rect x="40" y="252" width="60" height="18" rx="3" fill="#f9fafb" stroke="#e5e7eb" stroke-width="1"/>
    <text x="60" y="263" font-family="Arial, sans-serif" font-size="9" fill="#374151">Ctrl+Alt+D</text>
    
    <text x="115" y="260" font-family="Arial, sans-serif" font-size="12" font-weight="600" fill="#000000">Treatment</text>
    <rect x="175" y="255" width="50" height="16" rx="8" fill="#f3f4f6" stroke="#e5e7eb" stroke-width="1"/>
    <text x="190" y="264" font-family="Arial, sans-serif" font-size="8" fill="#6b7280">Wounds</text>
    <rect x="235" y="255" width="45" height="16" rx="8" fill="#fef3c7" stroke="#fde68a" stroke-width="1"/>
    <text x="250" y="264" font-family="Arial, sans-serif" font-size="8" fill="#92400e">Inactive</text>
    
    <text x="115" y="275" font-family="Arial, sans-serif" font-size="10" fill="#6b7280">Wound dressing changed. Previous dressing: {old_dressing}...</text>
    
    <rect x="620" y="250" width="28" height="22" rx="4" fill="white" stroke="#e5e7eb" stroke-width="1"/>
    <path d="M630 258L634 254L636 256L632 260L630 260Z" stroke="#9ca3af" stroke-width="1" fill="none"/>
    
    <rect x="655" y="250" width="28" height="22" rx="4" fill="white" stroke="#e5e7eb" stroke-width="1"/>
    <path d="M662 257L664 257M664 257L664 259M664 257L666 257M666 257L666 259M664 259L666 259" stroke="#9ca3af" stroke-width="1" fill="none"/>
    
    <text x="20" y="315" font-family="Arial, sans-serif" font-size="9" fill="#15803d">✅ Key improvements: 50px row height, 30px buttons, status indicators, better spacing</text>
  </g>
  
  <!-- Concept 2: Status Indicators Implementation -->
  <g transform="translate(20, 380)">
    <text x="0" y="15" font-family="Arial, sans-serif" font-size="14" font-weight="bold" fill="#15803d">Concept 2: Status Indicators & Quick Actions</text>
    <rect x="0" y="25" width="720" height="280" rx="8" fill="white" stroke="#e2e8f0" stroke-width="1"/>
    
    <text x="20" y="50" font-family="Arial, sans-serif" font-size="16" font-weight="bold" fill="#374151">Key Bindings</text>
    
    <!-- Enhanced filter with search -->
    <rect x="20" y="65" width="680" height="45" rx="8" fill="#fafafa" stroke="#f1f5f9" stroke-width="1"/>
    <text x="35" y="83" font-family="Arial, sans-serif" font-size="12" fill="#000000">Group:</text>
    <rect x="85" y="75" width="120" height="25" rx="5" fill="#f5f5f5" stroke="#d1d5db" stroke-width="1"/>
    <text x="95" y="90" font-family="Arial, sans-serif" font-size="10" fill="#000000">Wounds (4)</text>
    
    <!-- Search input -->
    <rect x="220" y="75" width="160" height="25" rx="5" fill="white" stroke="#d1d5db" stroke-width="1"/>
    <text x="230" y="90" font-family="Arial, sans-serif" font-size="10" fill="#9ca3af">Search shortcuts...</text>
    <circle cx="370" cy="87" r="6" fill="none" stroke="#9ca3af" stroke-width="1"/>
    <path d="M375 92L378 95" stroke="#9ca3af" stroke-width="1"/>
    
    <!-- Usage stats -->
    <text x="400" y="83" font-family="Arial, sans-serif" font-size="9" fill="#6b7280">4 total</text>
    <text x="400" y="95" font-family="Arial, sans-serif" font-size="9" fill="#6b7280">3 active</text>
    
    <rect x="580" y="75" width="100" height="25" rx="5" fill="#374151"/>
    <text x="615" y="90" font-family="Arial, sans-serif" font-size="10" fill="white">+ New Binding</text>
    
    <!-- Advanced binding with full status info -->
    <rect x="20" y="125" width="680" height="60" rx="6" fill="white" stroke="#e5e7eb" stroke-width="1"/>
    
    <!-- Detailed status indicator -->
    <rect x="25" y="130" width="4" height="50" rx="2" fill="#10b981"/>
    <circle cx="27" cy="135" r="2" fill="#10b981"/>
    
    <!-- Enhanced keyboard key -->
    <rect x="40" y="135" width="75" height="20" rx="3" fill="#ffffff" stroke="#d1d5db" stroke-width="1"/>
    <rect x="40" y="137" width="75" height="16" rx="3" fill="#f9fafb" stroke="#e5e7eb" stroke-width="1"/>
    <text x="65" y="147" font-family="Arial, sans-serif" font-size="8" fill="#374151">Ctrl+Shift+W</text>
    
    <!-- Rich content with badges -->
    <text x="125" y="145" font-family="Arial, sans-serif" font-size="12" font-weight="600" fill="#000000">Assessment</text>
    <rect x="190" y="140" width="35" height="14" rx="7" fill="#dcfce7" stroke="#bbf7d0" stroke-width="1"/>
    <text x="200" y="148" font-family="Arial, sans-serif" font-size="7" fill="#166534">Active</text>
    <rect x="235" y="140" width="40" height="14" rx="7" fill="#f3f4f6" stroke="#e5e7eb" stroke-width="1"/>
    <text x="245" y="148" font-family="Arial, sans-serif" font-size="7" fill="#6b7280">Wounds</text>
    
    <!-- Usage indicator -->
    <circle cx="285" cy="147" r="2" fill="#10b981"/>
    <text x="295" y="150" font-family="Arial, sans-serif" font-size="8" fill="#10b981">Used 12 times</text>
    
    <text x="125" y="158" font-family="Arial, sans-serif" font-size="10" fill="#6b7280">Wound assessment: {location} - {description}. Size: {size}...</text>
    <text x="125" y="170" font-family="Arial, sans-serif" font-size="8" fill="#9ca3af">Last used: 2 hours ago • Created: March 15</text>
    
    <!-- Extended action menu -->
    <rect x="550" y="135" width="22" height="18" rx="3" fill="white" stroke="#e5e7eb" stroke-width="1"/>
    <path d="M558 141L562 137L564 139L560 143L558 143Z" stroke="#6b7280" stroke-width="0.8" fill="none"/>
    
    <rect x="575" y="135" width="22" height="18" rx="3" fill="white" stroke="#e5e7eb" stroke-width="1"/>
    <rect x="580" y="139" width="12" height="8" rx="1" fill="none" stroke="#6b7280" stroke-width="0.8"/>
    <path d="M582 141L590 141M582 143L590 143" stroke="#6b7280" stroke-width="0.8"/>
    
    <rect x="600" y="135" width="22" height="18" rx="3" fill="white" stroke="#e5e7eb" stroke-width="1"/>
    <circle cx="611" cy="144" r="2" fill="none" stroke="#6b7280" stroke-width="0.8"/>
    <circle cx="611" cy="144" r="0.8" fill="#6b7280"/>
    
    <rect x="625" y="135" width="22" height="18" rx="3" fill="white" stroke="#e5e7eb" stroke-width="1"/>
    <path d="M632 141L634 141M634 141L634 143M634 141L636 141M636 141L636 143M634 143L636 143" stroke="#6b7280" stroke-width="0.8" fill="none"/>
    
    <rect x="650" y="135" width="40" height="18" rx="3" fill="#eff6ff" stroke="#bfdbfe" stroke-width="1"/>
    <text x="660" y="146" font-family="Arial, sans-serif" font-size="7" fill="#1d4ed8">Copy Key</text>
    
    <!-- Tooltip -->
    <rect x="575" y="120" width="45" height="12" rx="2" fill="#374151"/>
    <text x="585" y="128" font-family="Arial, sans-serif" font-size="7" fill="white">Copy shortcut</text>
    <polygon points="595,132 598,135 592,135" fill="#374151"/>
    
    <!-- Inactive binding example -->
    <rect x="20" y="195" width="680" height="50" rx="6" fill="#fafafa" stroke="#e5e7eb" stroke-width="1"/>
    <rect x="25" y="200" width="4" height="40" rx="2" fill="#e5e7eb"/>
    <circle cx="27" cy="205" r="2" fill="#e5e7eb"/>
    
    <rect x="40" y="205" width="65" height="20" rx="3" fill="#f9fafb" stroke="#e5e7eb" stroke-width="1"/>
    <text x="60" y="217" font-family="Arial, sans-serif" font-size="8" fill="#9ca3af">Ctrl+Alt+X</text>
    
    <text x="115" y="215" font-family="Arial, sans-serif" font-size="12" fill="#9ca3af">Old Template</text>
    <rect x="190" y="210" width="45" height="14" rx="7" fill="#fef3c7" stroke="#fde68a" stroke-width="1"/>
    <text x="205" y="218" font-family="Arial, sans-serif" font-size="7" fill="#92400e">Inactive</text>
    
    <text x="115" y="228" font-family="Arial, sans-serif" font-size="10" fill="#9ca3af">This template is no longer in use</text>
    <text x="115" y="238" font-family="Arial, sans-serif" font-size="8" fill="#9ca3af">Last used: 2 weeks ago • Deactivated: March 20</text>
    
    <text x="20" y="275" font-family="Arial, sans-serif" font-size="9" fill="#15803d">✅ Enhanced features: Search, usage stats, timestamps, copy functionality, detailed status</text>
  </g>
  
  <!-- Concept 3: Grouped Organization Implementation -->
  <g transform="translate(20, 680)">
    <text x="0" y="15" font-family="Arial, sans-serif" font-size="14" font-weight="bold" fill="#15803d">Concept 3: Grouped Organization</text>
    <rect x="0" y="25" width="720" height="320" rx="8" fill="white" stroke="#e2e8f0" stroke-width="1"/>
    
    <text x="20" y="50" font-family="Arial, sans-serif" font-size="16" font-weight="bold" fill="#374151">Key Bindings</text>
    
    <!-- Advanced filter controls -->
    <rect x="20" y="65" width="680" height="40" rx="8" fill="#fafafa" stroke="#f1f5f9" stroke-width="1"/>
    
    <!-- View toggle -->
    <text x="35" y="80" font-family="Arial, sans-serif" font-size="11" fill="#000000">View:</text>
    <rect x="75" y="72" width="50" height="22" rx="4" fill="#374151"/>
    <text x="90" y="85" font-family="Arial, sans-serif" font-size="9" fill="white">Groups</text>
    <rect x="130" y="72" width="35" height="22" rx="4" fill="white" stroke="#d1d5db" stroke-width="1"/>
    <text x="140" y="85" font-family="Arial, sans-serif" font-size="9" fill="#6b7280">List</text>
    <rect x="170" y="72" width="35" height="22" rx="4" fill="white" stroke="#d1d5db" stroke-width="1"/>
    <text x="180" y="85" font-family="Arial, sans-serif" font-size="9" fill="#6b7280">Grid</text>
    
    <!-- Sort controls -->
    <text x="230" y="85" font-family="Arial, sans-serif" font-size="9" fill="#6b7280">Sort:</text>
    <rect x="270" y="72" width="60" height="22" rx="4" fill="white" stroke="#d1d5db" stroke-width="1"/>
    <text x="285" y="85" font-family="Arial, sans-serif" font-size="9" fill="#374151">Recent</text>
    <polygon points="322,82 327,87 317,87" fill="#6b7280"/>
    
    <!-- Filter -->
    <rect x="350" y="72" width="120" height="22" rx="4" fill="white" stroke="#d1d5db" stroke-width="1"/>
    <text x="360" y="85" font-family="Arial, sans-serif" font-size="9" fill="#9ca3af">Filter shortcuts...</text>
    
    <rect x="580" y="72" width="100" height="22" rx="4" fill="#374151"/>
    <text x="615" y="85" font-family="Arial, sans-serif" font-size="9" fill="white">+ New Binding</text>
    
    <!-- Group header with controls -->
    <rect x="20" y="115" width="680" height="35" rx="6" fill="#f8fafc" stroke="#f1f5f9" stroke-width="1"/>
    
    <!-- Collapse/expand -->
    <rect x="30" y="125" width="16" height="16" rx="2" fill="#f3f4f6" stroke="#d1d5db" stroke-width="1"/>
    <path d="M35 130L41 136L47 125" stroke="#6b7280" stroke-width="1.5" fill="none"/>
    
    <!-- Group info -->
    <circle cx="60" cy="133" r="6" fill="#dcfce7" stroke="#bbf7d0" stroke-width="1"/>
    <path d="M57 133L59 135L63 129" stroke="#16a34a" stroke-width="1.5" fill="none"/>
    
    <text x="75" y="137" font-family="Arial, sans-serif" font-size="12" font-weight="600" fill="#374151">Wounds & Injuries</text>
    <text x="200" y="137" font-family="Arial, sans-serif" font-size="10" fill="#6b7280">4 shortcuts • 3 active • Last used 2h ago</text>
    
    <!-- Group actions -->
    <rect x="580" y="125" width="50" height="16" rx="3" fill="white" stroke="#d1d5db" stroke-width="1"/>
    <text x="595" y="135" font-family="Arial, sans-serif" font-size="8" fill="#6b7280">+ Add</text>
    
    <rect x="635" y="125" width="16" height="16" rx="3" fill="white" stroke="#d1d5db" stroke-width="1"/>
    <circle cx="643" cy="133" r="1" fill="#6b7280"/>
    <circle cx="643" cy="128" r="1" fill="#6b7280"/>
    <circle cx="643" cy="138" r="1" fill="#6b7280"/>
    
    <rect x="655" y="125" width="35" height="16" rx="3" fill="white" stroke="#d1d5db" stroke-width="1"/>
    <text x="665" y="135" font-family="Arial, sans-serif" font-size="8" fill="#6b7280">Hide</text>
    
    <!-- Grouped bindings with indentation -->
    <rect x="35" y="160" width="665" height="35" rx="4" fill="white" stroke="#f1f5f9" stroke-width="1"/>
    <rect x="45" y="167" width="55" height="18" rx="3" fill="#ffffff" stroke="#d1d5db" stroke-width="1"/>
    <text x="62" y="178" font-family="Arial, sans-serif" font-size="8" fill="#374151">Ctrl+W</text>
    
    <text x="110" y="175" font-family="Arial, sans-serif" font-size="11" fill="#000000">Assessment</text>
    <rect x="180" y="171" width="30" height="12" rx="6" fill="#dcfce7" stroke="#bbf7d0" stroke-width="1"/>
    <text x="190" y="179" font-family="Arial, sans-serif" font-size="7" fill="#166534">Active</text>
    
    <text x="110" y="185" font-family="Arial, sans-serif" font-size="9" fill="#6b7280">Quick wound assessment template</text>
    
    <rect x="35" y="200" width="665" height="35" rx="4" fill="white" stroke="#f1f5f9" stroke-width="1"/>
    <rect x="45" y="207" width="55" height="18" rx="3" fill="#ffffff" stroke="#d1d5db" stroke-width="1"/>
    <text x="62" y="218" font-family="Arial, sans-serif" font-size="8" fill="#374151">Ctrl+D</text>
    
    <text x="110" y="215" font-family="Arial, sans-serif" font-size="11" fill="#000000">Treatment</text>
    <rect x="170" y="211" width="30" height="12" rx="6" fill="#dcfce7" stroke="#bbf7d0" stroke-width="1"/>
    <text x="180" y="219" font-family="Arial, sans-serif" font-size="7" fill="#166534">Active</text>
    
    <text x="110" y="225" font-family="Arial, sans-serif" font-size="9" fill="#6b7280">Dressing change documentation</text>
    
    <!-- Collapsed group preview -->
    <rect x="20" y="245" width="680" height="25" rx="6" fill="#f8fafc" stroke="#f1f5f9" stroke-width="1"/>
    <rect x="30" y="252" width="16" height="16" rx="2" fill="#f3f4f6" stroke="#d1d5db" stroke-width="1"/>
    <path d="M35 257L41 257M38 254L38 260" stroke="#6b7280" stroke-width="1.5"/>
    
    <circle cx="60" cy="257" r="6" fill="#fef3c7" stroke="#fde68a" stroke-width="1"/>
    <text x="75" y="261" font-family="Arial, sans-serif" font-size="11" font-weight="600" fill="#374151">Medications</text>
    <text x="150" y="261" font-family="Arial, sans-serif" font-size="10" fill="#6b7280">6 shortcuts • Collapsed</text>
    
    <text x="20" y="295" font-family="Arial, sans-serif" font-size="9" fill="#15803d">✅ Organization features: Collapsible groups, view modes, sorting, group management</text>
  </g>
  
  <!-- Concept 4: Compact Grid Implementation -->
  <g transform="translate(20, 1020)">
    <text x="0" y="15" font-family="Arial, sans-serif" font-size="14" font-weight="bold" fill="#15803d">Concept 4: Compact Dashboard Grid</text>
    <rect x="0" y="25" width="720" height="250" rx="8" fill="white" stroke="#e2e8f0" stroke-width="1"/>
    
    <text x="20" y="50" font-family="Arial, sans-serif" font-size="16" font-weight="bold" fill="#374151">Key Bindings</text>
    
    <!-- Compact header with stats -->
    <rect x="20" y="65" width="680" height="30" rx="6" fill="#fafafa" stroke="#f1f5f9" stroke-width="1"/>
    <text x="30" y="77" font-family="Arial, sans-serif" font-size="10" font-weight="600" fill="#000000">12 shortcuts</text>
    <text x="100" y="77" font-family="Arial, sans-serif" font-size="10" fill="#6b7280">•</text>
    <text x="110" y="77" font-family="Arial, sans-serif" font-size="10" fill="#6b7280">3 groups</text>
    <text x="160" y="77" font-family="Arial, sans-serif" font-size="10" fill="#6b7280">•</text>
    <text x="170" y="77" font-family="Arial, sans-serif" font-size="10" fill="#6b7280">10 active</text>
    <text x="220" y="77" font-family="Arial, sans-serif" font-size="10" fill="#6b7280">•</text>
    <text x="230" y="77" font-family="Arial, sans-serif" font-size="10" fill="#6b7280">Last used: Assessment</text>
    
    <!-- Quick actions -->
    <rect x="520" y="70" width="60" height="20" rx="4" fill="#374151"/>
    <text x="540" y="82" font-family="Arial, sans-serif" font-size="9" fill="white">+ New</text>
    
    <rect x="585" y="70" width="20" height="20" rx="4" fill="white" stroke="#d1d5db" stroke-width="1"/>
    <path d="M592 77L596 77M594 75L594 79" stroke="#6b7280" stroke-width="1"/>
    
    <rect x="610" y="70" width="30" height="20" rx="4" fill="white" stroke="#d1d5db" stroke-width="1"/>
    <text x="620" y="82" font-family="Arial, sans-serif" font-size="8" fill="#6b7280">Grid</text>
    
    <rect x="645" y="70" width="30" height="20" rx="4" fill="white" stroke="#d1d5db" stroke-width="1"/>
    <text x="655" y="82" font-family="Arial, sans-serif" font-size="8" fill="#6b7280">List</text>
    
    <!-- Grid layout of shortcuts -->
    <!-- Row 1 -->
    <rect x="20" y="105" width="170" height="40" rx="6" fill="white" stroke="#e5e7eb" stroke-width="1"/>
    <rect x="25" y="110" width="45" height="16" rx="2" fill="#f9fafb" stroke="#d1d5db" stroke-width="1"/>
    <text x="40" y="120" font-family="Arial, sans-serif" font-size="7" fill="#374151">Ctrl+W</text>
    <text x="75" y="115" font-family="Arial, sans-serif" font-size="10" font-weight="600" fill="#000000">Assessment</text>
    <circle cx="175" cy="113" r="3" fill="#10b981"/>
    <text x="75" y="125" font-family="Arial, sans-serif" font-size="8" fill="#6b7280">Quick wound check</text>
    <text x="75" y="135" font-family="Arial, sans-serif" font-size="7" fill="#9ca3af">Used 24 times</text>
    
    <rect x="200" y="105" width="170" height="40" rx="6" fill="white" stroke="#e5e7eb" stroke-width="1"/>
    <rect x="205" y="110" width="45" height="16" rx="2" fill="#f9fafb" stroke="#d1d5db" stroke-width="1"/>
    <text x="220" y="120" font-family="Arial, sans-serif" font-size="7" fill="#374151">Ctrl+D</text>
    <text x="255" y="115" font-family="Arial, sans-serif" font-size="10" font-weight="600" fill="#000000">Treatment</text>
    <circle cx="355" cy="113" r="3" fill="#10b981"/>
    <text x="255" y="125" font-family="Arial, sans-serif" font-size="8" fill="#6b7280">Dressing change</text>
    <text x="255" y="135" font-family="Arial, sans-serif" font-size="7" fill="#9ca3af">Used 18 times</text>
    
    <rect x="380" y="105" width="170" height="40" rx="6" fill="white" stroke="#e5e7eb" stroke-width="1"/>
    <rect x="385" y="110" width="45" height="16" rx="2" fill="#f9fafb" stroke="#d1d5db" stroke-width="1"/>
    <text x="400" y="120" font-family="Arial, sans-serif" font-size="7" fill="#374151">Ctrl+H</text>
    <text x="435" y="115" font-family="Arial, sans-serif" font-size="10" font-weight="600" fill="#000000">Progress</text>
    <circle cx="535" cy="113" r="3" fill="#10b981"/>
    <text x="435" y="125" font-family="Arial, sans-serif" font-size="8" fill="#6b7280">Healing status</text>
    <text x="435" y="135" font-family="Arial, sans-serif" font-size="7" fill="#9ca3af">Used 15 times</text>
    
    <rect x="560" y="105" width="140" height="40" rx="6" fill="white" stroke="#e5e7eb" stroke-width="1"/>
    <rect x="565" y="110" width="40" height="16" rx="2" fill="#f9fafb" stroke="#d1d5db" stroke-width="1"/>
    <text x="580" y="120" font-family="Arial, sans-serif" font-size="7" fill="#374151">Ctrl+C</text>
    <text x="610" y="115" font-family="Arial, sans-serif" font-size="10" font-weight="600" fill="#000000">Care</text>
    <circle cx="685" cy="113" r="3" fill="#e5e7eb"/>
    <text x="610" y="125" font-family="Arial, sans-serif" font-size="8" fill="#6b7280">Cleaning</text>
    <text x="610" y="135" font-family="Arial, sans-serif" font-size="7" fill="#9ca3af">Used 8 times</text>
    
    <!-- Row 2 -->
    <rect x="20" y="155" width="170" height="40" rx="6" fill="white" stroke="#e5e7eb" stroke-width="1"/>
    <rect x="25" y="160" width="50" height="16" rx="2" fill="#f9fafb" stroke="#d1d5db" stroke-width="1"/>
    <text x="43" y="170" font-family="Arial, sans-serif" font-size="7" fill="#374151">Ctrl+M</text>
    <text x="80" y="165" font-family="Arial, sans-serif" font-size="10" font-weight="600" fill="#000000">Medication</text>
    <circle cx="175" cy="163" r="3" fill="#fbbf24"/>
    <text x="80" y="175" font-family="Arial, sans-serif" font-size="8" fill="#6b7280">Drug administration</text>
    <text x="80" y="185" font-family="Arial, sans-serif" font-size="7" fill="#9ca3af">Used 12 times</text>
    
    <rect x="200" y="155" width="170" height="40" rx="6" fill="white" stroke="#e5e7eb" stroke-width="1"/>
    <rect x="205" y="160" width="45" height="16" rx="2" fill="#f9fafb" stroke="#d1d5db" stroke-width="1"/>
    <text x="220" y="170" font-family="Arial, sans-serif" font-size="7" fill="#374151">Ctrl+V</text>
    <text x="255" y="165" font-family="Arial, sans-serif" font-size="10" font-weight="600" fill="#000000">Vitals</text>
    <circle cx="355" cy="163" r="3" fill="#10b981"/>
    <text x="255" y="175" font-family="Arial, sans-serif" font-size="8" fill="#6b7280">Vital signs check</text>
    <text x="255" y="185" font-family="Arial, sans-serif" font-size="7" fill="#9ca3af">Used 31 times</text>
    
    <!-- Add more button -->
    <rect x="380" y="155" width="170" height="40" rx="6" fill="#f8fafc" stroke="#e5e7eb" stroke-width="1" stroke-dasharray="3,3"/>
    <circle cx="465" cy="175" r="12" fill="#f3f4f6" stroke="#d1d5db" stroke-width="1"/>
    <path d="M462 175L468 175M465 172L465 178" stroke="#6b7280" stroke-width="1.5"/>
    <text x="440" y="190" font-family="Arial, sans-serif" font-size="9" fill="#6b7280">Add shortcut</text>
    
    <text x="20" y="225" font-family="Arial, sans-serif" font-size="9" fill="#15803d">✅ Grid benefits: Fast scanning, usage indicators, efficient space use, clear hierarchy</text>
  </g>
  
  <!-- Implementation Recommendation -->
  <g transform="translate(20, 1290)">
    <rect x="0" y="0" width="720" height="120" fill="#eff6ff" rx="8" stroke="#3b82f6" stroke-width="1"/>
    <text x="20" y="25" font-family="Arial, sans-serif" font-size="14" font-weight="bold" fill="#1d4ed8">Implementation Roadmap</text>
    
    <text x="20" y="45" font-family="Arial, sans-serif" font-size="11" font-weight="600" fill="#1e40af">Phase 1 (Immediate): Enhanced Spacing</text>
    <text x="30" y="58" font-family="Arial, sans-serif" font-size="10" fill="#1e40af">• Increase row height to 50px minimum</text>
    <text x="30" y="70" font-family="Arial, sans-serif" font-size="10" fill="#1e40af">• Enlarge action buttons to 24px+</text>
    <text x="30" y="82" font-family="Arial, sans-serif" font-size="10" fill="#1e40af">• Add visual separators between sections</text>
    
    <text x="380" y="45" font-family="Arial, sans-serif" font-size="11" font-weight="600" fill="#1e40af">Phase 2 (Next): Status & Actions</text>
    <text x="390" y="58" font-family="Arial, sans-serif" font-size="10" fill="#1e40af">• Active/inactive indicators</text>
    <text x="390" y="70" font-family="Arial, sans-serif" font-size="10" fill="#1e40af">• Usage statistics display</text>
    <text x="390" y="82" font-family="Arial, sans-serif" font-size="10" fill="#1e40af">• Quick copy functionality</text>
    
    <text x="20" y="105" font-family="Arial, sans-serif" font-size="11" font-weight="600" fill="#1d4ed8">Start with Concept 1 for immediate UX improvements, then iterate based on user needs</text>
  </g>
</svg>