<svg viewBox="0 0 1200 900" xmlns="http://www.w3.org/2000/svg">
  <!-- Background -->
  <rect width="1200" height="900" fill="#f8fafc"/>
  
  <!-- Title -->
  <text x="20" y="30" font-family="Arial, sans-serif" font-size="18" font-weight="bold" fill="#1e293b">Key Bindings UX Improvements - Group Selection Integration</text>
  
  <!-- Current Design (Problem) -->
  <g transform="translate(20, 60)">
    <text x="0" y="20" font-family="Arial, sans-serif" font-size="14" font-weight="600" fill="#dc2626">❌ Current Design (Disconnected)</text>
    
    <!-- Left sidebar -->
    <rect x="0" y="30" width="180" height="200" rx="8" fill="white" stroke="#e2e8f0" stroke-width="1"/>
    <text x="10" y="50" font-family="Arial, sans-serif" font-size="12" font-weight="600" fill="#6b7280">Active Group</text>
    <rect x="10" y="60" width="160" height="30" rx="4" fill="#f1f5f9" stroke="#d1d5db" stroke-width="1"/>
    <text x="15" y="78" font-family="Arial, sans-serif" font-size="11" fill="#374151">Wounds (4 bindings)</text>
    
    <!-- Arrow showing disconnect -->
    <path d="M190 120 Q220 120 220 150 Q220 180 250 180" stroke="#dc2626" stroke-width="2" fill="none" marker-end="url(#arrowRed)"/>
    <text x="200" y="140" font-family="Arial, sans-serif" font-size="10" fill="#dc2626">Feels disconnected!</text>
    
    <!-- Right content -->
    <rect x="250" y="30" width="300" height="200" rx="8" fill="white" stroke="#e2e8f0" stroke-width="1"/>
    <text x="260" y="50" font-family="Arial, sans-serif" font-size="12" font-weight="600" fill="#374151">Key Bindings</text>
    <text x="260" y="70" font-family="Arial, sans-serif" font-size="10" fill="#6b7280">Showing bindings in Wounds</text>
    
    <!-- Sample bindings -->
    <rect x="260" y="85" width="280" height="25" rx="4" fill="#f8fafc" stroke="#e2e8f0" stroke-width="1"/>
    <text x="270" y="100" font-family="Arial, sans-serif" font-size="10" fill="#374151">Ctrl+Shift+W - Wound assessment...</text>
    
    <rect x="260" y="115" width="280" height="25" rx="4" fill="#f8fafc" stroke="#e2e8f0" stroke-width="1"/>
    <text x="270" y="130" font-family="Arial, sans-serif" font-size="10" fill="#374151">Ctrl+Alt+D - Wound dressing changed...</text>
  </g>
  
  <!-- Design 1: Integrated Header Filter -->
  <g transform="translate(20, 300)">
    <text x="0" y="20" font-family="Arial, sans-serif" font-size="14" font-weight="600" fill="#059669">✅ Option 1: Integrated Header Filter</text>
    
    <!-- Single container -->
    <rect x="0" y="30" width="550" height="200" rx="8" fill="white" stroke="#e2e8f0" stroke-width="1"/>
    
    <!-- Header with group selector -->
    <rect x="12" y="42" width="526" height="50" rx="6" fill="#f8fafc"/>
    <text x="20" y="60" font-family="Arial, sans-serif" font-size="14" font-weight="600" fill="#374151">Key Bindings</text>
    
    <!-- Inline group selector -->
    <text x="20" y="78" font-family="Arial, sans-serif" font-size="11" fill="#6b7280">Filter by group:</text>
    <rect x="110" y="68" width="180" height="24" rx="4" fill="white" stroke="#d1d5db" stroke-width="1"/>
    <text x="118" y="82" font-family="Arial, sans-serif" font-size="10" fill="#374151">Wounds (4 bindings)</text>
    <polygon points="280,75 285,80 275,80" fill="#6b7280"/>
    
    <!-- Action buttons -->
    <rect x="320" y="68" width="60" height="24" rx="4" fill="#3b82f6"/>
    <text x="335" y="82" font-family="Arial, sans-serif" font-size="10" fill="white">+ New</text>
    
    <rect x="390" y="68" width="70" height="24" rx="4" fill="white" stroke="#d1d5db" stroke-width="1"/>
    <text x="405" y="82" font-family="Arial, sans-serif" font-size="10" fill="#374151">+ Group</text>
    
    <rect x="470" y="68" width="60" height="24" rx="4" fill="white" stroke="#d1d5db" stroke-width="1"/>
    <text x="485" y="82" font-family="Arial, sans-serif" font-size="10" fill="#374151">Settings</text>
    
    <!-- Bindings list -->
    <rect x="20" y="110" width="510" height="25" rx="4" fill="#eff6ff" stroke="#3b82f6" stroke-width="1"/>
    <text x="30" y="125" font-family="Arial, sans-serif" font-size="11" fill="#1d4ed8">Ctrl+Shift+W</text>
    <text x="130" y="125" font-family="Arial, sans-serif" font-size="11" fill="#374151">Wound assessment: {location}...</text>
    
    <rect x="20" y="140" width="510" height="25" rx="4" fill="#f8fafc" stroke="#e2e8f0" stroke-width="1"/>
    <text x="30" y="155" font-family="Arial, sans-serif" font-size="11" fill="#6b7280">Ctrl+Alt+D</text>
    <text x="130" y="155" font-family="Arial, sans-serif" font-size="11" fill="#374151">Wound dressing changed...</text>
    
    <rect x="20" y="170" width="510" height="25" rx="4" fill="#f8fafc" stroke="#e2e8f0" stroke-width="1"/>
    <text x="30" y="185" font-family="Arial, sans-serif" font-size="11" fill="#6b7280">Ctrl+Shift+H</text>
    <text x="130" y="185" font-family="Arial, sans-serif" font-size="11" fill="#374151">Wound healing progress...</text>
  </g>
  
  <!-- Design 2: Tab-style Integration -->
  <g transform="translate(590, 300)">
    <text x="0" y="20" font-family="Arial, sans-serif" font-size="14" font-weight="600" fill="#059669">✅ Option 2: Tab-style Groups</text>
    
    <!-- Container -->
    <rect x="0" y="30" width="550" height="200" rx="8" fill="white" stroke="#e2e8f0" stroke-width="1"/>
    
    <!-- Tab header -->
    <rect x="12" y="42" width="526" height="35" rx="6" fill="#f8fafc"/>
    
    <!-- Active tab -->
    <rect x="20" y="48" width="80" height="23" rx="4" fill="#3b82f6"/>
    <text x="35" y="62" font-family="Arial, sans-serif" font-size="10" fill="white">Wounds (4)</text>
    
    <!-- Other tabs -->
    <rect x="105" y="48" width="90" height="23" rx="4" fill="white" stroke="#e2e8f0" stroke-width="1"/>
    <text x="120" y="62" font-family="Arial, sans-serif" font-size="10" fill="#64748b">Medications (12)</text>
    
    <rect x="200" y="48" width="80" height="23" rx="4" fill="white" stroke="#e2e8f0" stroke-width="1"/>
    <text x="215" y="62" font-family="Arial, sans-serif" font-size="10" fill="#64748b">Dementia (6)</text>
    
    <!-- More tabs indicator -->
    <rect x="285" y="48" width="30" height="23" rx="4" fill="#f1f5f9" stroke="#e2e8f0" stroke-width="1"/>
    <text x="292" y="62" font-family="Arial, sans-serif" font-size="10" fill="#64748b">+3</text>
    
    <!-- Quick actions -->
    <rect x="450" y="48" width="50" height="23" rx="4" fill="#10b981"/>
    <text x="465" y="62" font-family="Arial, sans-serif" font-size="10" fill="white">+ New</text>
    
    <rect x="505" y="48" width="25" height="23" rx="4" fill="white" stroke="#d1d5db" stroke-width="1"/>
    <text x="514" y="62" font-family="Arial, sans-serif" font-size="10" fill="#374151">⚙</text>
    
    <!-- Content area -->
    <text x="20" y="95" font-family="Arial, sans-serif" font-size="12" font-weight="600" fill="#374151">Wounds Key Bindings</text>
    
    <!-- Bindings -->
    <rect x="20" y="105" width="510" height="22" rx="3" fill="#eff6ff"/>
    <text x="25" y="118" font-family="Arial, sans-serif" font-size="10" fill="#1d4ed8">Ctrl+Shift+W</text>
    <text x="110" y="118" font-family="Arial, sans-serif" font-size="10" fill="#374151">Wound assessment template</text>
    
    <rect x="20" y="130" width="510" height="22" rx="3" fill="#f8fafc"/>
    <text x="25" y="143" font-family="Arial, sans-serif" font-size="10" fill="#6b7280">Ctrl+Alt+D</text>
    <text x="110" y="143" font-family="Arial, sans-serif" font-size="10" fill="#374151">Dressing change documentation</text>
  </g>
  
  <!-- Design 3: Contextual Sidebar -->
  <g transform="translate(20, 530)">
    <text x="0" y="20" font-family="Arial, sans-serif" font-size="14" font-weight="600" fill="#059669">✅ Option 3: Contextual Right Panel</text>
    
    <!-- Main content -->
    <rect x="0" y="30" width="400" height="200" rx="8" fill="white" stroke="#e2e8f0" stroke-width="1"/>
    
    <!-- Header with current group indicator -->
    <rect x="12" y="42" width="376" height="30" rx="6" fill="#f8fafc"/>
    <text x="20" y="58" font-family="Arial, sans-serif" font-size="12" font-weight="600" fill="#374151">Key Bindings</text>
    <rect x="320" y="48" width="60" height="18" rx="9" fill="#3b82f6"/>
    <text x="340" y="58" font-family="Arial, sans-serif" font-size="9" fill="white">Wounds</text>
    
    <!-- Bindings list -->
    <rect x="20" y="85" width="360" height="22" rx="3" fill="#eff6ff"/>
    <text x="25" y="98" font-family="Arial, sans-serif" font-size="10" fill="#1d4ed8">Ctrl+Shift+W</text>
    <text x="100" y="98" font-family="Arial, sans-serif" font-size="10" fill="#374151">Wound assessment</text>
    
    <rect x="20" y="110" width="360" height="22" rx="3" fill="#f8fafc"/>
    <text x="25" y="123" font-family="Arial, sans-serif" font-size="10" fill="#6b7280">Ctrl+Alt+D</text>
    <text x="100" y="123" font-family="Arial, sans-serif" font-size="10" fill="#374151">Dressing change</text>
    
    <!-- Right panel for group management -->
    <rect x="420" y="30" width="150" height="200" rx="8" fill="white" stroke="#e2e8f0" stroke-width="1"/>
    <text x="430" y="50" font-family="Arial, sans-serif" font-size="11" font-weight="600" fill="#374151">Switch Group</text>
    
    <!-- Quick group switcher -->
    <rect x="430" y="60" width="130" height="20" rx="3" fill="#eff6ff" stroke="#3b82f6" stroke-width="1"/>
    <text x="435" y="72" font-family="Arial, sans-serif" font-size="9" fill="#1d4ed8">✓ Wounds (4)</text>
    
    <rect x="430" y="85" width="130" height="20" rx="3" fill="#f8fafc" stroke="#e2e8f0" stroke-width="1"/>
    <text x="435" y="97" font-family="Arial, sans-serif" font-size="9" fill="#374151">Medications (12)</text>
    
    <rect x="430" y="110" width="130" height="20" rx="3" fill="#f8fafc" stroke="#e2e8f0" stroke-width="1"/>
    <text x="435" y="122" font-family="Arial, sans-serif" font-size="9" fill="#374151">Dementia (6)</text>
    
    <rect x="430" y="135" width="130" height="20" rx="3" fill="#f8fafc" stroke="#e2e8f0" stroke-width="1"/>
    <text x="435" y="147" font-family="Arial, sans-serif" font-size="9" fill="#374151">+ All Groups</text>
    
    <!-- Actions -->
    <rect x="430" y="170" width="60" height="20" rx="3" fill="#10b981"/>
    <text x="445" y="182" font-family="Arial, sans-serif" font-size="9" fill="white">+ New</text>
    
    <rect x="495" y="170" width="25" height="20" rx="3" fill="white" stroke="#d1d5db" stroke-width="1"/>
    <text x="504" y="182" font-family="Arial, sans-serif" font-size="9" fill="#374151">⚙</text>
  </g>
  
  <!-- Design 4: Smart Filter Bar -->
  <g transform="translate(590, 530)">
    <text x="0" y="20" font-family="Arial, sans-serif" font-size="14" font-weight="600" fill="#059669">✅ Option 4: Smart Filter Bar</text>
    
    <!-- Container -->
    <rect x="0" y="30" width="550" height="200" rx="8" fill="white" stroke="#e2e8f0" stroke-width="1"/>
    
    <!-- Smart filter bar -->
    <rect x="12" y="42" width="526" height="40" rx="6" fill="#f0f9ff"/>
    
    <!-- Search/filter input -->
    <rect x="20" y="50" width="180" height="24" rx="4" fill="white" stroke="#3b82f6" stroke-width="1"/>
    <text x="25" y="64" font-family="Arial, sans-serif" font-size="10" fill="#6b7280">🔍 Search or filter by group...</text>
    
    <!-- Active filters -->
    <rect x="210" y="52" width="60" height="20" rx="10" fill="#3b82f6"/>
    <text x="225" y="64" font-family="Arial, sans-serif" font-size="9" fill="white">Wounds ✕</text>
    
    <rect x="275" y="52" width="70" height="20" rx="10" fill="#f3f4f6" stroke="#d1d5db" stroke-width="1"/>
    <text x="290" y="64" font-family="Arial, sans-serif" font-size="9" fill="#6b7280">+ Add filter</text>
    
    <!-- Quick actions -->
    <rect x="430" y="50" width="50" height="24" rx="4" fill="#10b981"/>
    <text x="445" y="64" font-family="Arial, sans-serif" font-size="10" fill="white">+ New</text>
    
    <rect x="485" y="50" width="45" height="24" rx="4" fill="white" stroke="#d1d5db" stroke-width="1"/>
    <text x="495" y="64" font-family="Arial, sans-serif" font-size="10" fill="#374151">Manage</text>
    
    <!-- Results header -->
    <text x="20" y="100" font-family="Arial, sans-serif" font-size="11" fill="#6b7280">4 bindings in Wounds group</text>
    
    <!-- Bindings with group context -->
    <rect x="20" y="110" width="510" height="25" rx="4" fill="#eff6ff"/>
    <rect x="25" y="113" width="30" height="19" rx="2" fill="#3b82f6"/>
    <text x="30" y="124" font-family="Arial, sans-serif" font-size="8" fill="white">WND</text>
    <text x="65" y="125" font-family="Arial, sans-serif" font-size="10" fill="#1d4ed8">Ctrl+Shift+W</text>
    <text x="150" y="125" font-family="Arial, sans-serif" font-size="10" fill="#374151">Wound assessment template</text>
    
    <rect x="20" y="140" width="510" height="25" rx="4" fill="#f8fafc"/>
    <rect x="25" y="143" width="30" height="19" rx="2" fill="#3b82f6"/>
    <text x="30" y="154" font-family="Arial, sans-serif" font-size="8" fill="white">WND</text>
    <text x="65" y="155" font-family="Arial, sans-serif" font-size="10" fill="#6b7280">Ctrl+Alt+D</text>
    <text x="150" y="155" font-family="Arial, sans-serif" font-size="10" fill="#374151">Wound dressing documentation</text>
  </g>
  
  <!-- Recommendations -->
  <g transform="translate(20, 760)">
    <rect x="0" y="0" width="1160" height="120" fill="#f0fdf4" rx="8" stroke="#16a34a" stroke-width="1"/>
    <text x="20" y="25" font-family="Arial, sans-serif" font-size="14" font-weight="bold" fill="#15803d">💡 UX Recommendations</text>
    
    <text x="20" y="45" font-family="Arial, sans-serif" font-size="12" font-weight="600" fill="#166534">Best Option: Integrated Header Filter (Option 1)</text>
    <text x="20" y="60" font-family="Arial, sans-serif" font-size="11" fill="#15803d">
      • Keeps group selection directly above the bindings list - clear cause and effect
    </text>
    <text x="20" y="75" font-family="Arial, sans-serif" font-size="11" fill="#15803d">
      • Single container reduces visual clutter and cognitive load
    </text>
    <text x="20" y="90" font-family="Arial, sans-serif" font-size="11" fill="#15803d">
      • All related actions (filter, create binding, manage groups) are in the same visual area
    </text>
    <text x="20" y="105" font-family="Arial, sans-serif" font-size="11" fill="#15803d">
      • Maintains the platinum exclusivity while being more intuitive for all users
    </text>
  </g>
  
  <!-- Arrow marker definition -->
  <defs>
    <marker id="arrowRed" markerWidth="10" markerHeight="10" refX="9" refY="3" orient="auto" markerUnits="strokeWidth">
      <path d="M0,0 L0,6 L9,3 z" fill="#dc2626"/>
    </marker>
  </defs>
</svg>