<svg width="1200" height="1400" xmlns="http://www.w3.org/2000/svg">
  <defs>
    <style>
      .title { font-family: Arial, sans-serif; font-size: 18px; font-weight: bold; fill: #1f2937; }
      .subtitle { font-family: Arial, sans-serif; font-size: 14px; fill: #6b7280; }
      .header { font-family: Arial, sans-serif; font-size: 16px; font-weight: bold; fill: #1f2937; }
      .text { font-family: Arial, sans-serif; font-size: 12px; fill: #374151; }
      .small-text { font-family: Arial, sans-serif; font-size: 10px; fill: #6b7280; }
      .button-text { font-family: Arial, sans-serif; font-size: 11px; fill: white; }
      .badge-text { font-family: Arial, sans-serif; font-size: 8px; font-weight: bold; fill: #7c3aed; }
      .disabled-text { font-family: Arial, sans-serif; font-size: 11px; fill: #9ca3af; }
    </style>
  </defs>
  
  <!-- Background -->
  <rect width="1200" height="1400" fill="#f9fafb"/>
  
  <!-- Main Title -->
  <text x="600" y="30" text-anchor="middle" class="title">Platinum Group Features - UI Options</text>
  
  <!-- Option 1: Platinum Badges (Recommended) -->
  <g transform="translate(50, 60)">
    <rect width="1100" height="400" fill="white" stroke="#e5e7eb" rx="8"/>
    <text x="20" y="30" class="header">Option 1: Platinum Badges on Group Controls (Recommended)</text>
    
    <!-- Page Header -->
    <text x="30" y="60" class="title">Custom Key Bindings</text>
    <text x="30" y="80" class="subtitle">Create and manage keyboard shortcuts that automatically insert text templates when pressed</text>
    
    <!-- Controls Bar -->
    <rect x="30" y="100" width="1040" height="40" fill="#f9fafb" stroke="#e5e7eb" rx="6"/>
    <text x="45" y="120" class="small-text">Sort: Recent</text>
    <rect x="120" y="110" width="100" height="20" fill="white" stroke="#d1d5db" rx="3"/>
    <text x="125" y="122" class="small-text">Filter shortcuts...</text>
    
    <!-- New Binding Button with Platinum Badge -->
    <rect x="900" y="108" width="120" height="24" fill="#1f2937" rx="4"/>
    <text x="910" y="122" class="button-text">+ New Binding</text>
    <rect x="1025" y="105" width="35" height="12" fill="#ede9fe" stroke="#a855f7" rx="6"/>
    <text x="1030" y="113" class="badge-text">PLATINUM</text>
    
    <!-- Group Section Header -->
    <rect x="30" y="155" width="1040" height="35" fill="#f3f4f6" stroke="#e5e7eb" rx="6"/>
    <circle cx="50" cy="172" r="3" fill="#10b981"/>
    <text x="65" y="176" class="text">Wounds (3 shortcuts • 2 active)</text>
    <rect x="950" y="162" width="50" height="16" fill="#ede9fe" stroke="#a855f7" rx="8"/>
    <text x="960" y="172" class="badge-text">PLATINUM</text>
    
    <!-- Binding Items -->
    <rect x="30" y="200" width="1040" height="40" fill="white" stroke="#e5e7eb" rx="4"/>
    <rect x="45" y="210" width="60" height="20" fill="#f3f4f6" stroke="#d1d5db" rx="3"/>
    <text x="50" y="222" class="small-text">Ctrl+W</text>
    <text x="120" y="215" class="text">Patient has wound on left lower extremity...</text>
    <circle cx="1000" cy="220" r="4" fill="#10b981"/>
    <text x="1015" y="224" class="small-text">Active</text>
    
    <rect x="30" y="250" width="1040" height="40" fill="white" stroke="#e5e7eb" rx="4"/>
    <rect x="45" y="260" width="60" height="20" fill="#f3f4f6" stroke="#d1d5db" rx="3"/>
    <text x="50" y="272" class="small-text">Ctrl+H</text>
    <text x="120" y="265" class="text">Wound healing progress noted, dressing changed...</text>
    <circle cx="1000" cy="270" r="4" fill="#10b981"/>
    <text x="1015" y="274" class="small-text">Active</text>
    
    <!-- Edit Dialog Preview -->
    <rect x="750" y="310" width="300" height="80" fill="white" stroke="#d1d5db" rx="6" stroke-dasharray="5,5"/>
    <text x="760" y="330" class="text">Edit Binding Dialog:</text>
    <text x="760" y="350" class="small-text">Group: [Wounds ▼] [PLATINUM]</text>
    <text x="760" y="370" class="small-text">Non-Platinum users see disabled dropdown</text>
  </g>
  
  <!-- Option 2: Conditional Group Section -->
  <g transform="translate(50, 490)">
    <rect width="1100" height="350" fill="white" stroke="#e5e7eb" rx="8"/>
    <text x="20" y="30" class="header">Option 2: Conditional Group Management Section</text>
    
    <!-- Page Header -->
    <text x="30" y="60" class="title">Custom Key Bindings</text>
    <text x="30" y="80" class="subtitle">Create and manage keyboard shortcuts that automatically insert text templates when pressed</text>
    
    <!-- Group Management Card for Platinum -->
    <rect x="30" y="100" width="500" height="120" fill="#fefefe" stroke="#d1d5db" rx="6"/>
    <text x="45" y="125" class="header">Group Management</text>
    <rect x="430" y="110" width="50" height="16" fill="#ede9fe" stroke="#a855f7" rx="8"/>
    <text x="440" y="120" class="badge-text">PLATINUM</text>
    <text x="45" y="145" class="text">Organize shortcuts into categories</text>
    <rect x="45" y="155" width="80" height="24" fill="#6366f1" rx="4"/>
    <text x="55" y="169" class="button-text">Create Group</text>
    <rect x="135" y="155" width="80" height="24" fill="white" stroke="#d1d5db" rx="4"/>
    <text x="155" y="169" class="text">Manage</text>
    
    <!-- Key Bindings Card -->
    <rect x="550" y="100" width="520" height="120" fill="#fefefe" stroke="#d1d5db" rx="6"/>
    <text x="565" y="125" class="header">Key Bindings</text>
    <text x="565" y="145" class="text">Individual keyboard shortcuts</text>
    <rect x="565" y="155" width="80" height="24" fill="#1f2937" rx="4"/>
    <text x="575" y="169" class="button-text">New Binding</text>
    
    <!-- Upgrade Prompt for Non-Platinum -->
    <rect x="30" y="240" width="1040" height="80" fill="#fef3c7" stroke="#f59e0b" rx="6"/>
    <text x="45" y="265" class="header">🔒 Group Organization (Platinum Feature)</text>
    <text x="45" y="285" class="text">Organize your key bindings into custom groups and categories.</text>
    <rect x="45" y="295" width="120" height="24" fill="#7c3aed" rx="4"/>
    <text x="75" y="309" class="button-text">Upgrade to Platinum</text>
  </g>
  
  <!-- Option 3: Visual Hierarchy with Indicators -->
  <g transform="translate(50, 870)">
    <rect width="1100" height="400" fill="white" stroke="#e5e7eb" rx="8"/>
    <text x="20" y="30" class="header">Option 3: Visual Hierarchy with Upgrade Prompts</text>
    
    <!-- Page Header -->
    <text x="30" y="60" class="title">Custom Key Bindings</text>
    <text x="30" y="80" class="subtitle">Create and manage keyboard shortcuts that automatically insert text templates when pressed</text>
    
    <!-- Controls with Mixed Access -->
    <rect x="30" y="100" width="1040" height="40" fill="#f9fafb" stroke="#e5e7eb" rx="6"/>
    <text x="45" y="120" class="small-text">Sort: Recent</text>
    <rect x="900" y="108" width="80" height="24" fill="#1f2937" rx="4"/>
    <text x="910" y="122" class="button-text">+ New Binding</text>
    <rect x="990" y="108" width="80" height="24" fill="#e5e7eb" rx="4"/>
    <text x="1000" y="122" class="disabled-text">+ New Group</text>
    
    <!-- Mixed Content List -->
    <text x="30" y="170" class="header">Your Key Bindings</text>
    
    <!-- Locked Group Section -->
    <rect x="30" y="180" width="1040" height="35" fill="#f9fafb" stroke="#e5e7eb" stroke-dasharray="3,3" rx="6"/>
    <text x="45" y="200" class="disabled-text">🔒 Groups (Platinum Feature)</text>
    <rect x="920" y="187" width="100" height="20" fill="#7c3aed" rx="10"/>
    <text x="945" y="199" style="font-family: Arial, sans-serif; font-size: 10px; fill: white;">Upgrade to Unlock</text>
    
    <!-- Regular Bindings -->
    <rect x="30" y="225" width="1040" height="40" fill="white" stroke="#e5e7eb" rx="4"/>
    <rect x="45" y="235" width="60" height="20" fill="#f3f4f6" stroke="#d1d5db" rx="3"/>
    <text x="50" y="247" class="small-text">Ctrl+P</text>
    <text x="120" y="240" class="text">Patient presents with...</text>
    <text x="120" y="255" class="small-text">Ungrouped • Individual binding</text>
    
    <rect x="30" y="275" width="1040" height="40" fill="white" stroke="#e5e7eb" rx="4"/>
    <rect x="45" y="285" width="60" height="20" fill="#f3f4f6" stroke="#d1d5db" rx="3"/>
    <text x="50" y="297" class="small-text">Ctrl+A</text>
    <text x="120" y="290" class="text">Assessment shows...</text>
    <text x="120" y="305" class="small-text">Ungrouped • Individual binding</text>
    
    <!-- Feature Comparison Box -->
    <rect x="30" y="330" width="1040" height="50" fill="#f0f9ff" stroke="#0ea5e9" rx="6"/>
    <text x="45" y="350" class="text">💡 With Platinum: Organize bindings into groups like "Wounds", "Assessments", "Treatments"</text>
    <text x="45" y="365" class="small-text">• Better organization • Faster navigation • Professional workflow</text>
  </g>
  
  <!-- Recommendation Box -->
  <rect x="50" y="1300" width="1100" height="80" fill="#ecfdf5" stroke="#10b981" rx="8"/>
  <text x="70" y="1325" class="header">✅ Recommendation: Option 1 - Platinum Badges</text>
  <text x="70" y="1345" class="text">• Maintains unified interface • Clear visual indicators • Follows existing patterns</text>
  <text x="70" y="1360" class="text">• Non-disruptive to workflow • Easy to implement • Scalable for future features</text>
</svg>