<svg viewBox="0 0 800 900" xmlns="http://www.w3.org/2000/svg">
  <!-- Background -->
  <rect width="800" height="900" fill="#f8fafc"/>
  
  <!-- Title -->
  <text x="20" y="30" font-family="Arial, sans-serif" font-size="18" font-weight="bold" fill="#1e293b">Ultra-Minimal Design: All Suggestions Combined</text>
  
  <!-- Current Design (before changes) -->
  <g transform="translate(20, 60)">
    <text x="0" y="15" font-family="Arial, sans-serif" font-size="14" font-weight="bold" fill="#dc2626">❌ Current: Too Much Visual Noise</text>
    <rect x="0" y="25" width="720" height="140" rx="8" fill="white" stroke="#e2e8f0" stroke-width="1"/>
    
    <!-- Current colored filter bar -->
    <rect x="20" y="35" width="680" height="35" rx="6" fill="#f0fdfa" stroke="#5eead4" stroke-width="1"/>
    <text x="30" y="55" font-family="Arial, sans-serif" font-size="11" fill="#0f766e">Group: [Wounds (4)] [+] [toggle] [⚙]</text>
    
    <!-- Current colored new binding -->
    <rect x="20" y="75" width="680" height="30" rx="6" fill="#f0fdfa" stroke="#5eead4" stroke-width="1"/>
    <rect x="30" y="80" width="80" height="20" rx="4" fill="#0d9488"/>
    <text x="120" y="92" font-family="Arial, sans-serif" font-size="9" fill="#0f766e">Create a new keyboard shortcut</text>
    
    <!-- Current section header -->
    <text x="30" y="115" font-family="Arial, sans-serif" font-size="12" font-weight="bold" fill="#374151">Key Bindings (4 items)</text>
    
    <!-- Current colored binding -->
    <rect x="20" y="120" width="680" height="35" rx="6" fill="#f0fdfa" stroke="#5eead4" stroke-width="1"/>
    <rect x="30" y="127" width="60" height="20" rx="2" fill="#ffffff" stroke="#d1d5db" stroke-width="1"/>
    <text x="100" y="140" font-family="Arial, sans-serif" font-size="11" fill="#0f766e">Assessment - Wound assessment...</text>
  </g>
  
  <!-- Proposed Design -->
  <g transform="translate(20, 220)">
    <text x="0" y="15" font-family="Arial, sans-serif" font-size="14" font-weight="bold" fill="#15803d">✅ Proposed: Ultra-Minimal Clean</text>
    <rect x="0" y="25" width="720" height="140" rx="8" fill="white" stroke="#e2e8f0" stroke-width="1"/>
    
    <!-- Clean filter row - no background, no border color -->
    <div className="p-4">
      <text x="30" y="45" font-family="Arial, sans-serif" font-size="11" fill="#000000">Group:</text>
      <!-- Light gray dropdown -->
      <rect x="70" y="35" width="140" height="24" rx="4" fill="#f5f5f5" stroke="#d1d5db" stroke-width="1"/>
      <text x="80" y="49" font-family="Arial, sans-serif" font-size="10" fill="#000000">Wounds (4)</text>
      <polygon points="200,44 205,49 195,49" fill="#6b7280"/>
      
      <!-- Gray icons -->
      <rect x="220" y="38" width="18" height="18" rx="3" fill="white" stroke="#d1d5db" stroke-width="1"/>
      <path d="M226 44L232 44M229 41L229 47" stroke="#6b7280" stroke-width="1"/>
      
      <text x="250" y="47" font-family="Arial, sans-serif" font-size="10" fill="#6b7280">Inactive</text>
      <rect x="300" y="42" width="24" height="12" rx="6" fill="#e5e7eb"/>
      
      <rect x="340" y="38" width="18" height="18" rx="3" fill="white" stroke="#d1d5db" stroke-width="1"/>
      <g transform="translate(346, 44)">
        <circle cx="3" cy="3" r="1.5" fill="none" stroke="#6b7280" stroke-width="0.8"/>
        <path d="M3 0.5L3 1.2M3 4.8L3 5.5M5.2 1.5L4.9 2M1.1 4L0.8 4.5" stroke="#6b7280" stroke-width="0.8"/>
      </g>
      
      <!-- New Binding button on the right -->
      <rect x="580" y="35" width="80" height="24" rx="4" fill="#374151"/>
      <text x="605" y="49" font-family="Arial, sans-serif" font-size="10" fill="white">New Binding</text>
    </div>
    
    <!-- Clean key bindings list - no section header -->
    <!-- Binding 1 - no background, no border color -->
    <rect x="20" y="70" width="680" height="35" rx="6" fill="white" stroke="#e5e7eb" stroke-width="1"/>
    <!-- Clean keyboard key -->
    <rect x="30" y="77" width="60" height="20" rx="2" fill="#ffffff" stroke="#d1d5db" stroke-width="1"/>
    <rect x="30" y="79" width="60" height="16" rx="2" fill="#f9fafb" stroke="#e5e7eb" stroke-width="1"/>
    <text x="50" y="89" font-family="Arial, sans-serif" font-size="9" fill="#374151">Ctrl+W</text>
    
    <text x="100" y="85" font-family="Arial, sans-serif" font-size="11" fill="#000000">Assessment</text>
    <text x="100" y="97" font-family="Arial, sans-serif" font-size="10" fill="#6b7280">Wound assessment: {location} - {description}...</text>
    
    <!-- Gray action icons -->
    <rect x="620" y="80" width="20" height="16" rx="3" fill="white" stroke="#e5e7eb" stroke-width="1"/>
    <path d="M626 85L630 81L632 83L628 87L626 87Z M630 79L632 77L634 79L632 81Z" stroke="#6b7280" stroke-width="0.8" fill="none"/>
    
    <rect x="645" y="80" width="20" height="16" rx="3" fill="white" stroke="#e5e7eb" stroke-width="1"/>
    <path d="M650 83L652 83M652 83L652 85M652 83L654 83M654 83L654 85M652 85L654 85M651 81L655 81M653 81L653 80" stroke="#6b7280" stroke-width="0.8" fill="none"/>
    
    <!-- Binding 2 -->
    <rect x="20" y="110" width="680" height="35" rx="6" fill="white" stroke="#e5e7eb" stroke-width="1"/>
    <rect x="30" y="117" width="60" height="20" rx="2" fill="#ffffff" stroke="#d1d5db" stroke-width="1"/>
    <rect x="30" y="119" width="60" height="16" rx="2" fill="#f9fafb" stroke="#e5e7eb" stroke-width="1"/>
    <text x="50" y="129" font-family="Arial, sans-serif" font-size="9" fill="#374151">Ctrl+D</text>
    
    <text x="100" y="125" font-family="Arial, sans-serif" font-size="11" fill="#000000">Treatment</text>
    <text x="100" y="137" font-family="Arial, sans-serif" font-size="10" fill="#6b7280">Wound dressing changed. Previous dressing...</text>
    
    <!-- Gray action icons -->
    <rect x="620" y="120" width="20" height="16" rx="3" fill="white" stroke="#e5e7eb" stroke-width="1"/>
    <path d="M626 125L630 121L632 123L628 127L626 127Z M630 119L632 117L634 119L632 121Z" stroke="#6b7280" stroke-width="0.8" fill="none"/>
    
    <rect x="645" y="120" width="20" height="16" rx="3" fill="white" stroke="#e5e7eb" stroke-width="1"/>
    <path d="M650 123L652 123M652 123L652 125M652 123L654 123M654 123L654 125M652 125L654 125M651 121L655 121M653 121L653 120" stroke="#6b7280" stroke-width="0.8" fill="none"/>
  </g>
  
  <!-- Alternative Layout Option -->
  <g transform="translate(20, 380)">
    <text x="0" y="15" font-family="Arial, sans-serif" font-size="14" font-weight="bold" fill="#15803d">Alternative: New Binding Above List</text>
    <rect x="0" y="25" width="720" height="120" rx="8" fill="white" stroke="#e2e8f0" stroke-width="1"/>
    
    <!-- Filter row -->
    <text x="30" y="45" font-family="Arial, sans-serif" font-size="11" fill="#000000">Group:</text>
    <rect x="70" y="35" width="140" height="24" rx="4" fill="#f5f5f5" stroke="#d1d5db" stroke-width="1"/>
    <text x="80" y="49" font-family="Arial, sans-serif" font-size="10" fill="#000000">Wounds (4)</text>
    
    <!-- Icons on same row -->
    <rect x="220" y="38" width="18" height="18" rx="3" fill="white" stroke="#d1d5db" stroke-width="1"/>
    <path d="M226 44L232 44M229 41L229 47" stroke="#6b7280" stroke-width="1"/>
    
    <text x="250" y="47" font-family="Arial, sans-serif" font-size="10" fill="#6b7280">Inactive</text>
    <rect x="300" y="42" width="24" height="12" rx="6" fill="#e5e7eb"/>
    
    <rect x="340" y="38" width="18" height="18" rx="3" fill="white" stroke="#d1d5db" stroke-width="1"/>
    
    <!-- New Binding button separate row, right-aligned -->
    <rect x="600" y="65" width="80" height="24" rx="4" fill="#374151"/>
    <text x="625" y="79" font-family="Arial, sans-serif" font-size="10" fill="white">New Binding</text>
    
    <!-- Clean key bindings -->
    <rect x="20" y="95" width="680" height="35" rx="6" fill="white" stroke="#e5e7eb" stroke-width="1"/>
    <rect x="30" y="102" width="60" height="20" rx="2" fill="#ffffff" stroke="#d1d5db" stroke-width="1"/>
    <text x="50" y="114" font-family="Arial, sans-serif" font-size="9" fill="#374151">Ctrl+W</text>
    <text x="100" y="114" font-family="Arial, sans-serif" font-size="11" fill="#000000">Assessment</text>
  </g>
  
  <!-- Third Option: Integrated Button -->
  <g transform="translate(20, 520)">
    <text x="0" y="15" font-family="Arial, sans-serif" font-size="14" font-weight="bold" fill="#15803d">Option 3: Button Integrated in Filter Row</text>
    <rect x="0" y="25" width="720" height="100" rx="8" fill="white" stroke="#e2e8f0" stroke-width="1"/>
    
    <!-- Everything in one row -->
    <text x="30" y="50" font-family="Arial, sans-serif" font-size="11" fill="#000000">Group:</text>
    <rect x="70" y="40" width="120" height="20" rx="4" fill="#f5f5f5" stroke="#d1d5db" stroke-width="1"/>
    <text x="80" y="52" font-family="Arial, sans-serif" font-size="10" fill="#000000">Wounds (4)</text>
    
    <!-- Compact icons -->
    <rect x="200" y="42" width="16" height="16" rx="2" fill="white" stroke="#d1d5db" stroke-width="1"/>
    <path d="M206 48L210 48M208 46L208 50" stroke="#6b7280" stroke-width="1"/>
    
    <text x="225" y="52" font-family="Arial, sans-serif" font-size="9" fill="#6b7280">Inactive</text>
    <rect x="270" y="46" width="20" height="8" rx="4" fill="#e5e7eb"/>
    
    <rect x="300" y="42" width="16" height="16" rx="2" fill="white" stroke="#d1d5db" stroke-width="1"/>
    
    <!-- New Binding in same row -->
    <rect x="580" y="40" width="80" height="20" rx="4" fill="#374151"/>
    <text x="605" y="52" font-family="Arial, sans-serif" font-size="9" fill="white">New Binding</text>
    
    <!-- Clean shortcuts directly below -->
    <rect x="20" y="70" width="680" height="30" rx="6" fill="white" stroke="#e5e7eb" stroke-width="1"/>
    <rect x="30" y="77" width="50" height="16" rx="2" fill="#ffffff" stroke="#d1d5db" stroke-width="1"/>
    <text x="45" y="87" font-family="Arial, sans-serif" font-size="8" fill="#374151">Ctrl+W</text>
    <text x="90" y="87" font-family="Arial, sans-serif" font-size="10" fill="#000000">Assessment - Wound assessment...</text>
  </g>
  
  <!-- Recommendation Box -->
  <g transform="translate(20, 640)">
    <rect x="0" y="0" width="720" height="140" fill="#f0fdf4" rx="8" stroke="#16a34a" stroke-width="1"/>
    <text x="20" y="25" font-family="Arial, sans-serif" font-size="14" font-weight="bold" fill="#15803d">✅ Key Improvements Applied</text>
    
    <text x="20" y="45" font-family="Arial, sans-serif" font-size="11" fill="#15803d">Filter Section:</text>
    <text x="30" y="58" font-family="Arial, sans-serif" font-size="10" fill="#374151">• No background color or colored borders</text>
    <text x="30" y="70" font-family="Arial, sans-serif" font-size="10" fill="#374151">• Light gray dropdown, black text, gray icons</text>
    
    <text x="20" y="90" font-family="Arial, sans-serif" font-size="11" fill="#15803d">New Binding:</text>
    <text x="30" y="103" font-family="Arial, sans-serif" font-size="10" fill="#374151">• Removed border and background color</text>
    <text x="30" y="115" font-family="Arial, sans-serif" font-size="10" fill="#374151">• Removed explanatory text "Create a new keyboard shortcut"</text>
    
    <text x="360" y="45" font-family="Arial, sans-serif" font-size="11" fill="#15803d">Content:</text>
    <text x="370" y="58" font-family="Arial, sans-serif" font-size="10" fill="#374151">• Removed redundant "Key Bindings" header</text>
    <text x="370" y="70" font-family="Arial, sans-serif" font-size="10" fill="#374151">• Button positioned on right side above list</text>
    
    <text x="360" y="90" font-family="Arial, sans-serif" font-size="11" fill="#15803d">Shortcuts:</text>
    <text x="370" y="103" font-family="Arial, sans-serif" font-size="10" fill="#374151">• No background or border colors</text>
    <text x="370" y="115" font-family="Arial, sans-serif" font-size="10" fill="#374151">• Black/gray text and icons only</text>
    <text x="370" y="127" font-family="Arial, sans-serif" font-size="10" fill="#374151">• Maintains keyboard key styling</text>
  </g>
  
  <!-- Final Recommendation -->
  <g transform="translate(20, 800)">
    <rect x="0" y="0" width="720" height="60" fill="#eff6ff" rx="8" stroke="#3b82f6" stroke-width="1"/>
    <text x="20" y="20" font-family="Arial, sans-serif" font-size="12" font-weight="bold" fill="#1d4ed8">🎯 Recommended Implementation</text>
    <text x="20" y="35" font-family="Arial, sans-serif" font-size="10" fill="#1d4ed8">First option with New Binding button on right side above the list</text>
    <text x="20" y="47" font-family="Arial, sans-serif" font-size="10" fill="#1d4ed8">Maximum simplicity with clear visual hierarchy and minimal color distraction</text>
  </g>
</svg>