<svg viewBox="0 0 800 1100" xmlns="http://www.w3.org/2000/svg">
  <!-- Background -->
  <rect width="800" height="1100" fill="#f8fafc"/>
  
  <!-- Title -->
  <text x="20" y="30" font-family="Arial, sans-serif" font-size="18" font-weight="bold" fill="#1e293b">UX Improvement Concepts</text>
  
  <!-- Current Design -->
  <g transform="translate(20, 60)">
    <text x="0" y="15" font-family="Arial, sans-serif" font-size="14" font-weight="bold" fill="#374151">Current: Ultra-Minimal</text>
    <rect x="0" y="25" width="720" height="120" rx="8" fill="white" stroke="#e2e8f0" stroke-width="1"/>
    
    <!-- Current filter -->
    <text x="20" y="45" font-family="Arial, sans-serif" font-size="11" fill="#000000">Group:</text>
    <rect x="60" y="35" width="120" height="20" rx="4" fill="#f5f5f5" stroke="#d1d5db" stroke-width="1"/>
    <text x="70" y="47" font-family="Arial, sans-serif" font-size="10" fill="#000000">Wounds (4)</text>
    
    <!-- Current button -->
    <rect x="600" y="35" width="80" height="20" rx="4" fill="#374151"/>
    <text x="625" y="47" font-family="Arial, sans-serif" font-size="9" fill="white">New Binding</text>
    
    <!-- Current binding -->
    <rect x="20" y="65" width="680" height="30" rx="6" fill="white" stroke="#e5e7eb" stroke-width="1"/>
    <rect x="30" y="72" width="50" height="16" rx="2" fill="#ffffff" stroke="#d1d5db" stroke-width="1"/>
    <text x="45" y="82" font-family="Arial, sans-serif" font-size="8" fill="#374151">Ctrl+W</text>
    <text x="90" y="82" font-family="Arial, sans-serif" font-size="10" fill="#000000">Assessment</text>
    
    <!-- Issues -->
    <text x="20" y="115" font-family="Arial, sans-serif" font-size="9" fill="#dc2626">Issues: Cramped spacing, small touch targets, weak visual hierarchy</text>
  </g>
  
  <!-- Concept 1: Enhanced Spacing & Visual Hierarchy -->
  <g transform="translate(20, 200)">
    <text x="0" y="15" font-family="Arial, sans-serif" font-size="14" font-weight="bold" fill="#15803d">Concept 1: Enhanced Spacing & Visual Hierarchy</text>
    <rect x="0" y="25" width="720" height="160" rx="8" fill="white" stroke="#e2e8f0" stroke-width="1"/>
    
    <!-- Better spaced filter section -->
    <rect x="20" y="35" width="680" height="40" rx="6" fill="#fafafa" stroke="#f1f5f9" stroke-width="1"/>
    <text x="30" y="50" font-family="Arial, sans-serif" font-size="12" fill="#000000">Group:</text>
    <rect x="75" y="40" width="140" height="30" rx="6" fill="#f5f5f5" stroke="#d1d5db" stroke-width="1"/>
    <text x="85" y="57" font-family="Arial, sans-serif" font-size="11" fill="#000000">Wounds (4 shortcuts)</text>
    
    <!-- Better spaced icons -->
    <rect x="230" y="45" width="20" height="20" rx="4" fill="white" stroke="#d1d5db" stroke-width="1"/>
    <path d="M237 52L243 52M240 49L240 55" stroke="#6b7280" stroke-width="1.2"/>
    
    <text x="265" y="57" font-family="Arial, sans-serif" font-size="11" fill="#6b7280">Show inactive</text>
    <rect x="350" y="50" width="30" height="10" rx="5" fill="#e5e7eb"/>
    
    <rect x="395" y="45" width="20" height="20" rx="4" fill="white" stroke="#d1d5db" stroke-width="1"/>
    
    <!-- Better positioned button -->
    <rect x="580" y="40" width="100" height="30" rx="6" fill="#374151"/>
    <text x="615" y="57" font-family="Arial, sans-serif" font-size="11" fill="white">+ New Binding</text>
    
    <!-- Subtle divider -->
    <line x1="30" y1="85" x2="690" y2="85" stroke="#f1f5f9" stroke-width="1"/>
    
    <!-- Better spaced bindings -->
    <rect x="20" y="95" width="680" height="45" rx="6" fill="white" stroke="#e5e7eb" stroke-width="1"/>
    <rect x="30" y="105" width="60" height="20" rx="3" fill="#ffffff" stroke="#d1d5db" stroke-width="1"/>
    <rect x="30" y="107" width="60" height="16" rx="3" fill="#f9fafb" stroke="#e5e7eb" stroke-width="1"/>
    <text x="50" y="117" font-family="Arial, sans-serif" font-size="9" fill="#374151">Ctrl+Shift+W</text>
    
    <!-- Better content layout -->
    <text x="100" y="110" font-family="Arial, sans-serif" font-size="12" font-weight="600" fill="#000000">Assessment</text>
    <rect x="170" y="106" width="45" height="16" rx="8" fill="#f3f4f6" stroke="#e5e7eb" stroke-width="1"/>
    <text x="180" y="115" font-family="Arial, sans-serif" font-size="8" fill="#6b7280">Wounds</text>
    <text x="100" y="125" font-family="Arial, sans-serif" font-size="10" fill="#6b7280">Wound assessment: {location} - {description}. Size: {size}...</text>
    
    <!-- Larger action buttons -->
    <rect x="640" y="105" width="24" height="20" rx="4" fill="white" stroke="#e5e7eb" stroke-width="1"/>
    <path d="M648 112L652 108L654 110L650 114L648 114Z M652 106L654 104L656 106L654 108Z" stroke="#6b7280" stroke-width="1" fill="none"/>
    
    <rect x="670" y="105" width="24" height="20" rx="4" fill="white" stroke="#e5e7eb" stroke-width="1"/>
    <path d="M675 110L677 110M677 110L677 112M677 110L679 110M679 110L679 112M677 112L679 112M676 108L680 108M678 108L678 107" stroke="#6b7280" stroke-width="1" fill="none"/>
    
    <text x="20" y="170" font-family="Arial, sans-serif" font-size="9" fill="#15803d">✅ Improvements: Better spacing, larger touch targets, subtle dividers, clearer hierarchy</text>
  </g>
  
  <!-- Concept 2: Status Indicators & Quick Actions -->
  <g transform="translate(20, 380)">
    <text x="0" y="15" font-family="Arial, sans-serif" font-size="14" font-weight="bold" fill="#15803d">Concept 2: Status Indicators & Quick Actions</text>
    <rect x="0" y="25" width="720" height="140" rx="8" fill="white" stroke="#e2e8f0" stroke-width="1"/>
    
    <!-- Enhanced filter with search -->
    <rect x="20" y="35" width="680" height="35" rx="6" fill="#fafafa" stroke="#f1f5f9" stroke-width="1"/>
    <text x="30" y="50" font-family="Arial, sans-serif" font-size="11" fill="#000000">Group:</text>
    <rect x="70" y="40" width="120" height="25" rx="5" fill="#f5f5f5" stroke="#d1d5db" stroke-width="1"/>
    <text x="80" y="54" font-family="Arial, sans-serif" font-size="10" fill="#000000">Wounds (4)</text>
    
    <!-- Quick search -->
    <rect x="210" y="40" width="140" height="25" rx="5" fill="white" stroke="#d1d5db" stroke-width="1"/>
    <text x="220" y="54" font-family="Arial, sans-serif" font-size="10" fill="#9ca3af">Search shortcuts...</text>
    <circle cx="340" cy="52" r="6" fill="none" stroke="#9ca3af" stroke-width="1"/>
    
    <!-- Action button with count -->
    <rect x="580" y="40" width="100" height="25" rx="5" fill="#374151"/>
    <text x="615" y="54" font-family="Arial, sans-serif" font-size="10" fill="white">+ New (4 total)</text>
    
    <!-- Enhanced binding with status -->
    <rect x="20" y="80" width="680" height="40" rx="6" fill="white" stroke="#e5e7eb" stroke-width="1"/>
    
    <!-- Active indicator -->
    <rect x="25" y="85" width="3" height="30" rx="1.5" fill="#10b981"/>
    
    <!-- Keyboard shortcut -->
    <rect x="35" y="87" width="65" height="18" rx="3" fill="#ffffff" stroke="#d1d5db" stroke-width="1"/>
    <rect x="35" y="89" width="65" height="14" rx="3" fill="#f9fafb" stroke="#e5e7eb" stroke-width="1"/>
    <text x="55" y="98" font-family="Arial, sans-serif" font-size="8" fill="#374151">Ctrl+Shift+W</text>
    
    <!-- Content with better badges -->
    <text x="110" y="95" font-family="Arial, sans-serif" font-size="11" font-weight="600" fill="#000000">Assessment</text>
    <rect x="170" y="91" width="40" height="14" rx="7" fill="#dcfce7" stroke="#bbf7d0" stroke-width="1"/>
    <text x="180" y="99" font-family="Arial, sans-serif" font-size="7" fill="#166534">Active</text>
    <rect x="220" y="91" width="40" height="14" rx="7" fill="#f3f4f6" stroke="#e5e7eb" stroke-width="1"/>
    <text x="230" y="99" font-family="Arial, sans-serif" font-size="7" fill="#6b7280">Wounds</text>
    
    <text x="110" y="108" font-family="Arial, sans-serif" font-size="9" fill="#6b7280">Wound assessment: {location} - {description}. Size: {size}...</text>
    
    <!-- Usage indicator -->
    <text x="110" y="118" font-family="Arial, sans-serif" font-size="8" fill="#9ca3af">Last used: 2 hours ago</text>
    
    <!-- Quick actions -->
    <rect x="600" y="87" width="20" height="16" rx="3" fill="white" stroke="#e5e7eb" stroke-width="1"/>
    <path d="M607 92L611 88L613 90L609 94L607 94Z M611 86L613 84L615 86L613 88Z" stroke="#6b7280" stroke-width="0.8" fill="none"/>
    
    <rect x="625" y="87" width="20" height="16" rx="3" fill="white" stroke="#e5e7eb" stroke-width="1"/>
    <circle cx="635" cy="95" r="2" fill="none" stroke="#6b7280" stroke-width="0.8"/>
    <circle cx="635" cy="95" r="0.8" fill="#6b7280"/>
    
    <rect x="650" y="87" width="20" height="16" rx="3" fill="white" stroke="#e5e7eb" stroke-width="1"/>
    <path d="M655 92L657 92M657 92L657 94M657 92L659 92M659 92L659 94M657 94L659 94M656 90L660 90M658 90L658 89" stroke="#6b7280" stroke-width="0.8" fill="none"/>
    
    <text x="675" y="97" font-family="Arial, sans-serif" font-size="7" fill="#6b7280">Copy</text>
    
    <text x="20" y="155" font-family="Arial, sans-serif" font-size="9" fill="#15803d">✅ Improvements: Status indicators, usage data, quick search, copy shortcut</text>
  </g>
  
  <!-- Concept 3: Grouped Organization -->
  <g transform="translate(20, 540)">
    <text x="0" y="15" font-family="Arial, sans-serif" font-size="14" font-weight="bold" fill="#15803d">Concept 3: Grouped Organization</text>
    <rect x="0" y="25" width="720" height="160" rx="8" fill="white" stroke="#e2e8f0" stroke-width="1"/>
    
    <!-- Filter with view options -->
    <rect x="20" y="35" width="680" height="30" rx="6" fill="#fafafa" stroke="#f1f5f9" stroke-width="1"/>
    <text x="30" y="48" font-family="Arial, sans-serif" font-size="11" fill="#000000">View:</text>
    <rect x="70" y="40" width="60" height="20" rx="4" fill="#374151"/>
    <text x="85" y="52" font-family="Arial, sans-serif" font-size="9" fill="white">Groups</text>
    <rect x="135" y="40" width="40" height="20" rx="4" fill="white" stroke="#d1d5db" stroke-width="1"/>
    <text x="145" y="52" font-family="Arial, sans-serif" font-size="9" fill="#6b7280">List</text>
    
    <!-- Sort options -->
    <text x="200" y="52" font-family="Arial, sans-serif" font-size="9" fill="#6b7280">Sort by:</text>
    <rect x="250" y="40" width="80" height="20" rx="4" fill="white" stroke="#d1d5db" stroke-width="1"/>
    <text x="260" y="52" font-family="Arial, sans-serif" font-size="9" fill="#374151">Recent</text>
    
    <rect x="580" y="40" width="100" height="20" rx="4" fill="#374151"/>
    <text x="615" y="52" font-family="Arial, sans-serif" font-size="9" fill="white">+ New Binding</text>
    
    <!-- Group header -->
    <rect x="20" y="75" width="680" height="25" rx="4" fill="#f8fafc" stroke="#f1f5f9" stroke-width="1"/>
    <rect x="25" y="80" width="15" height="15" rx="2" fill="#f3f4f6" stroke="#d1d5db" stroke-width="1"/>
    <path d="M30 85L35 90L40 80" stroke="#6b7280" stroke-width="1.5" fill="none"/>
    <text x="45" y="90" font-family="Arial, sans-serif" font-size="11" font-weight="600" fill="#374151">Wounds (4 shortcuts)</text>
    <text x="650" y="90" font-family="Arial, sans-serif" font-size="9" fill="#9ca3af">Collapse</text>
    
    <!-- Grouped bindings -->
    <rect x="35" y="105" width="665" height="30" rx="4" fill="white" stroke="#f1f5f9" stroke-width="1"/>
    <rect x="45" y="112" width="50" height="16" rx="2" fill="#ffffff" stroke="#d1d5db" stroke-width="1"/>
    <text x="60" y="122" font-family="Arial, sans-serif" font-size="8" fill="#374151">Ctrl+W</text>
    <text x="105" y="122" font-family="Arial, sans-serif" font-size="10" fill="#000000">Assessment</text>
    
    <rect x="35" y="140" width="665" height="30" rx="4" fill="white" stroke="#f1f5f9" stroke-width="1"/>
    <rect x="45" y="147" width="50" height="16" rx="2" fill="#ffffff" stroke="#d1d5db" stroke-width="1"/>
    <text x="60" y="157" font-family="Arial, sans-serif" font-size="8" fill="#374151">Ctrl+D</text>
    <text x="105" y="157" font-family="Arial, sans-serif" font-size="10" fill="#000000">Treatment</text>
    
    <text x="20" y="200" font-family="Arial, sans-serif" font-size="9" fill="#15803d">✅ Improvements: Collapsible groups, view toggles, sorting options</text>
  </g>
  
  <!-- Concept 4: Compact Dashboard Style -->
  <g transform="translate(20, 720)">
    <text x="0" y="15" font-family="Arial, sans-serif" font-size="14" font-weight="bold" fill="#15803d">Concept 4: Compact Dashboard Style</text>
    <rect x="0" y="25" width="720" height="140" rx="8" fill="white" stroke="#e2e8f0" stroke-width="1"/>
    
    <!-- Compact header -->
    <rect x="20" y="35" width="680" height="25" rx="4" fill="#fafafa" stroke="#f1f5f9" stroke-width="1"/>
    <text x="30" y="50" font-family="Arial, sans-serif" font-size="10" fill="#000000">4 shortcuts</text>
    <text x="90" y="50" font-family="Arial, sans-serif" font-size="10" fill="#6b7280">•</text>
    <text x="100" y="50" font-family="Arial, sans-serif" font-size="10" fill="#6b7280">Wounds group</text>
    <text x="170" y="50" font-family="Arial, sans-serif" font-size="10" fill="#6b7280">•</text>
    <text x="180" y="50" font-family="Arial, sans-serif" font-size="10" fill="#6b7280">All active</text>
    
    <rect x="580" y="37" width="80" height="21" rx="4" fill="#374151"/>
    <text x="605" y="49" font-family="Arial, sans-serif" font-size="9" fill="white">+ New</text>
    <rect x="665" y="37" width="25" height="21" rx="4" fill="white" stroke="#d1d5db" stroke-width="1"/>
    <path d="M674 44L678 44M676 42L676 46" stroke="#6b7280" stroke-width="1"/>
    
    <!-- Grid layout -->
    <rect x="20" y="70" width="165" height="35" rx="4" fill="white" stroke="#e5e7eb" stroke-width="1"/>
    <rect x="25" y="77" width="40" height="14" rx="2" fill="#f9fafb" stroke="#d1d5db" stroke-width="1"/>
    <text x="35" y="86" font-family="Arial, sans-serif" font-size="7" fill="#374151">Ctrl+W</text>
    <text x="70" y="82" font-family="Arial, sans-serif" font-size="9" fill="#000000">Assessment</text>
    <text x="70" y="95" font-family="Arial, sans-serif" font-size="8" fill="#6b7280">Quick wound check</text>
    
    <rect x="195" y="70" width="165" height="35" rx="4" fill="white" stroke="#e5e7eb" stroke-width="1"/>
    <rect x="200" y="77" width="40" height="14" rx="2" fill="#f9fafb" stroke="#d1d5db" stroke-width="1"/>
    <text x="210" y="86" font-family="Arial, sans-serif" font-size="7" fill="#374151">Ctrl+D</text>
    <text x="245" y="82" font-family="Arial, sans-serif" font-size="9" fill="#000000">Treatment</text>
    <text x="245" y="95" font-family="Arial, sans-serif" font-size="8" fill="#6b7280">Dressing change</text>
    
    <rect x="370" y="70" width="165" height="35" rx="4" fill="white" stroke="#e5e7eb" stroke-width="1"/>
    <rect x="375" y="77" width="40" height="14" rx="2" fill="#f9fafb" stroke="#d1d5db" stroke-width="1"/>
    <text x="385" y="86" font-family="Arial, sans-serif" font-size="7" fill="#374151">Ctrl+H</text>
    <text x="420" y="82" font-family="Arial, sans-serif" font-size="9" fill="#000000">Progress</text>
    <text x="420" y="95" font-family="Arial, sans-serif" font-size="8" fill="#6b7280">Healing status</text>
    
    <rect x="545" y="70" width="155" height="35" rx="4" fill="white" stroke="#e5e7eb" stroke-width="1"/>
    <rect x="550" y="77" width="40" height="14" rx="2" fill="#f9fafb" stroke="#d1d5db" stroke-width="1"/>
    <text x="560" y="86" font-family="Arial, sans-serif" font-size="7" fill="#374151">Ctrl+C</text>
    <text x="595" y="82" font-family="Arial, sans-serif" font-size="9" fill="#000000">Care</text>
    <text x="595" y="95" font-family="Arial, sans-serif" font-size="8" fill="#6b7280">Cleaning procedure</text>
    
    <text x="20" y="130" font-family="Arial, sans-serif" font-size="9" fill="#15803d">✅ Improvements: Grid layout for better scanning, compact info display</text>
  </g>
  
  <!-- Recommendation -->
  <g transform="translate(20, 880)">
    <rect x="0" y="0" width="720" height="180" fill="#eff6ff" rx="8" stroke="#3b82f6" stroke-width="1"/>
    <text x="20" y="25" font-family="Arial, sans-serif" font-size="14" font-weight="bold" fill="#1d4ed8">🎯 Recommended Implementation Strategy</text>
    
    <text x="20" y="50" font-family="Arial, sans-serif" font-size="12" font-weight="600" fill="#1d4ed8">Phase 1: Enhanced Spacing (Concept 1)</text>
    <text x="30" y="65" font-family="Arial, sans-serif" font-size="10" fill="#1e40af">• Increase touch target sizes to 24px minimum</text>
    <text x="30" y="77" font-family="Arial, sans-serif" font-size="10" fill="#1e40af">• Add subtle dividers between sections</text>
    <text x="30" y="89" font-family="Arial, sans-serif" font-size="10" fill="#1e40af">• Improve button hierarchy and positioning</text>
    
    <text x="20" y="110" font-family="Arial, sans-serif" font-size="12" font-weight="600" fill="#1d4ed8">Phase 2: Status Indicators (Concept 2)</text>
    <text x="30" y="125" font-family="Arial, sans-serif" font-size="10" fill="#1e40af">• Add active/inactive visual indicators</text>
    <text x="30" y="137" font-family="Arial, sans-serif" font-size="10" fill="#1e40af">• Include usage timestamps</text>
    <text x="30" y="149" font-family="Arial, sans-serif" font-size="10" fill="#1e40af">• Quick copy shortcut functionality</text>
    
    <text x="380" y="50" font-family="Arial, sans-serif" font-size="12" font-weight="600" fill="#1d4ed8">Future Considerations:</text>
    <text x="390" y="65" font-family="Arial, sans-serif" font-size="10" fill="#1e40af">• Search functionality when >10 shortcuts</text>
    <text x="390" y="77" font-family="Arial, sans-serif" font-size="10" fill="#1e40af">• Grouped view for multiple categories</text>
    <text x="390" y="89" font-family="Arial, sans-serif" font-size="10" fill="#1e40af">• Compact grid for power users</text>
    <text x="390" y="101" font-family="Arial, sans-serif" font-size="10" fill="#1e40af">• Keyboard navigation support</text>
    
    <text x="20" y="170" font-family="Arial, sans-serif" font-size="11" font-weight="600" fill="#1d4ed8">Start with Concept 1 for immediate UX gains, then iterate based on user feedback</text>
  </g>
</svg>